<svg xmlns="http://www.w3.org/2000/svg" width="880" height="268" viewBox="0 0 880 268" role="img" aria-label="Sdark">
<defs>
  <pattern id="slSdark" width="3" height="3" patternUnits="userSpaceOnUse">
    <rect width="3" height="1" fill="#DCE7F0" opacity=".045"/>
  </pattern>
  <linearGradient id="glSdark" x1="0" y1="0" x2="0" y2="1">
    <stop offset="0" stop-color="#FFB000" stop-opacity=".28"/><stop offset="1" stop-color="#FFB000" stop-opacity="0"/>
  </linearGradient>
  <filter id="gwSdark" x="-30%" y="-60%" width="160%" height="220%">
    <feGaussianBlur stdDeviation="2.6" result="b"/><feMerge><feMergeNode in="b"/><feMergeNode in="SourceGraphic"/></feMerge>
  </filter>
</defs>
<rect width="880" height="268" rx="7" fill="#06080B"/>
  <text x="44" y="36" font-family="ui-monospace,SFMono-Regular,'SF Mono',Menlo,Consolas,'Liberation Mono',monospace" font-size="11" letter-spacing="3.4" fill="#5A6B7A">FIG. A · COMMIT SIGNAL, ROLLING 12 MONTHS</text>
  <text x="836" y="36" text-anchor="end" font-family="ui-monospace,SFMono-Regular,'SF Mono',Menlo,Consolas,'Liberation Mono',monospace" font-size="11" letter-spacing="1.6" fill="#7FDBFF">PEAK 1,805 / WEEK</text>

  <g stroke="#131A22" stroke-width="1">
    <path d="M44 74.0h792"/><path d="M44 101.0h792"/><path d="M44 128.0h792"/><path d="M44 155.0h792"/><path d="M44 182.0h792"/>
    <path d="M44.0 74v108"/><path d="M110.0 74v108"/><path d="M176.0 74v108"/><path d="M242.0 74v108"/><path d="M308.0 74v108"/><path d="M374.0 74v108"/><path d="M440.0 74v108"/><path d="M506.0 74v108"/><path d="M572.0 74v108"/><path d="M638.0 74v108"/><path d="M704.0 74v108"/><path d="M770.0 74v108"/><path d="M836.0 74v108"/>
  </g>

  <path d="M44,182 L44.0,182.0 L59.2,182.0 L74.5,182.0 L89.7,182.0 L104.9,182.0 L120.2,182.0 L135.4,181.9 L150.6,182.0 L165.8,182.0 L181.1,182.0 L196.3,182.0 L211.5,182.0 L226.8,182.0 L242.0,182.0 L257.2,182.0 L272.5,182.0 L287.7,182.0 L302.9,182.0 L318.2,182.0 L333.4,182.0 L348.6,182.0 L363.8,182.0 L379.1,182.0 L394.3,173.4 L409.5,177.9 L424.8,165.4 L440.0,163.9 L455.2,141.4 L470.5,174.7 L485.7,170.6 L500.9,177.7 L516.2,167.4 L531.4,169.7 L546.6,176.3 L561.8,100.7 L577.1,115.3 L592.3,158.4 L607.5,171.9 L622.8,101.5 L638.0,74.0 L653.2,75.6 L668.5,98.3 L683.7,137.7 L698.9,156.7 L714.2,152.6 L729.4,178.5 L744.6,137.2 L759.8,136.1 L775.1,148.7 L790.3,161.2 L805.5,169.5 L820.8,162.7 L836.0,166.4 L836,182 Z" fill="url(#glSdark)"/>
  <path d="M44.0,182.0 L59.2,182.0 L74.5,182.0 L89.7,182.0 L104.9,182.0 L120.2,182.0 L135.4,181.9 L150.6,182.0 L165.8,182.0 L181.1,182.0 L196.3,182.0 L211.5,182.0 L226.8,182.0 L242.0,182.0 L257.2,182.0 L272.5,182.0 L287.7,182.0 L302.9,182.0 L318.2,182.0 L333.4,182.0 L348.6,182.0 L363.8,182.0 L379.1,182.0 L394.3,173.4 L409.5,177.9 L424.8,165.4 L440.0,163.9 L455.2,141.4 L470.5,174.7 L485.7,170.6 L500.9,177.7 L516.2,167.4 L531.4,169.7 L546.6,176.3 L561.8,100.7 L577.1,115.3 L592.3,158.4 L607.5,171.9 L622.8,101.5 L638.0,74.0 L653.2,75.6 L668.5,98.3 L683.7,137.7 L698.9,156.7 L714.2,152.6 L729.4,178.5 L744.6,137.2 L759.8,136.1 L775.1,148.7 L790.3,161.2 L805.5,169.5 L820.8,162.7 L836.0,166.4" fill="none" stroke="#FFB000" stroke-width="1.9" stroke-linejoin="round" filter="url(#gwSdark)"/>
  <circle cx="638.0" cy="74.0" r="3.4" fill="#06080B" stroke="#FFB000" stroke-width="1.6"/>
  <path d="M44 182h792" stroke="#1E2A35" stroke-width="1.25"/>

  <g font-family="ui-monospace,SFMono-Regular,'SF Mono',Menlo,Consolas,'Liberation Mono',monospace" font-size="9" letter-spacing="1.4" fill="#5A6B7A">
    <text x="44" y="199">OCT 2025</text>
    <text x="440" y="199" text-anchor="middle">MAR 2026</text>
    <text x="836" y="199" text-anchor="end">AUG 2026</text>
  </g>

  <path d="M44 216h792" stroke="#1E2A35" stroke-width=".75" opacity=".65"/>

  <g transform="translate(44,240)" font-family="ui-monospace,SFMono-Regular,'SF Mono',Menlo,Consolas,'Liberation Mono',monospace" font-size="10.5">
    <text fill="#5A6B7A" letter-spacing="1.4">PRIVATE</text>
    <text x="72" fill="#DCE7F0" font-weight="700">13,674</text>
    <text x="152" fill="#5A6B7A" letter-spacing="1.4">PUBLIC</text>
    <text x="214" fill="#DCE7F0" font-weight="700">3,013</text>
    <text x="290" fill="#5A6B7A" letter-spacing="1.4">STREAK</text>
    <text x="352" fill="#DCE7F0" font-weight="700">53d</text>
    <text x="414" fill="#5A6B7A" letter-spacing="1.4">REPOS</text>
    <text x="470" fill="#DCE7F0" font-weight="700">50</text>
  </g>
  <g transform="translate(836,240)">
    <rect x="-124" y="-13" width="124" height="19" rx="2" fill="#FFB000" opacity=".13"/>
    <text x="-62" y="1" text-anchor="middle" font-family="ui-monospace,SFMono-Regular,'SF Mono',Menlo,Consolas,'Liberation Mono',monospace" font-size="9.5" letter-spacing="1.5" fill="#FFB000">81.9% NON-PUBLIC</text>
  </g>

<rect width="880" height="268" rx="7" fill="url(#slSdark)"/>
<rect x=".5" y=".5" width="879" height="267" rx="6.5" fill="none" stroke="#1E2A35"/>
</svg>