<svg xmlns="http://www.w3.org/2000/svg" width="880" height="132" viewBox="0 0 880 132" role="img">
<rect width="880" height="132" fill="#080A0F"/>
<text x="58" y="26" font-family="'Avenir Next',Avenir,'Segoe UI',ui-sans-serif,system-ui,sans-serif" font-size="11" letter-spacing="3.6" fill="#5B6474">ACTIVITY</text>
<rect x="58.00" y="100.5" width="4.04" height="1.5" rx=".8" fill="#4D8DFF" opacity="0.24"/><rect x="65.21" y="100.5" width="4.04" height="1.5" rx=".8" fill="#4D8DFF" opacity="0.24"/><rect x="72.42" y="100.5" width="4.04" height="1.5" rx=".8" fill="#4D8DFF" opacity="0.24"/><rect x="79.62" y="100.5" width="4.04" height="1.5" rx=".8" fill="#4D8DFF" opacity="0.24"/><rect x="86.83" y="100.5" width="4.04" height="1.5" rx=".8" fill="#4D8DFF" opacity="0.24"/><rect x="94.04" y="100.5" width="4.04" height="1.5" rx=".8" fill="#4D8DFF" opacity="0.24"/><rect x="101.25" y="100.5" width="4.04" height="1.5" rx=".8" fill="#4D8DFF" opacity="0.24"/><rect x="108.45" y="100.5" width="4.04" height="1.5" rx=".8" fill="#4D8DFF" opacity="0.24"/><rect x="115.66" y="100.5" width="4.04" height="1.5" rx=".8" fill="#4D8DFF" opacity="0.24"/><rect x="122.87" y="100.5" width="4.04" height="1.5" rx=".8" fill="#4D8DFF" opacity="0.24"/><rect x="130.08" y="100.5" width="4.04" height="1.5" rx=".8" fill="#4D8DFF" opacity="0.24"/><rect x="137.28" y="100.5" width="4.04" height="1.5" rx=".8" fill="#4D8DFF" opacity="0.24"/><rect x="144.49" y="100.5" width="4.04" height="1.5" rx=".8" fill="#4D8DFF" opacity="0.24"/><rect x="151.70" y="100.5" width="4.04" height="1.5" rx=".8" fill="#4D8DFF" opacity="0.24"/><rect x="158.91" y="100.5" width="4.04" height="1.5" rx=".8" fill="#4D8DFF" opacity="0.24"/><rect x="166.11" y="100.5" width="4.04" height="1.5" rx=".8" fill="#4D8DFF" opacity="0.24"/><rect x="173.32" y="100.5" width="4.04" height="1.5" rx=".8" fill="#4D8DFF" opacity="0.24"/><rect x="180.53" y="100.5" width="4.04" height="1.5" rx=".8" fill="#4D8DFF" opacity="0.24"/><rect x="187.74" y="100.5" width="4.04" height="1.5" rx=".8" fill="#4D8DFF" opacity="0.24"/><rect x="194.94" y="100.5" width="4.04" height="1.5" rx=".8" fill="#4D8DFF" opacity="0.24"/><rect x="202.15" y="100.5" width="4.04" height="1.5" rx=".8" fill="#4D8DFF" opacity="0.24"/><rect x="209.36" y="100.5" width="4.04" height="1.5" rx=".8" fill="#4D8DFF" opacity="0.24"/><rect x="216.57" y="100.5" width="4.04" height="1.5" rx=".8" fill="#4D8DFF" opacity="0.24"/><rect x="223.77" y="100.5" width="4.04" height="1.5" rx=".8" fill="#4D8DFF" opacity="0.24"/><rect x="230.98" y="100.5" width="4.04" height="1.5" rx=".8" fill="#4D8DFF" opacity="0.24"/><rect x="238.19" y="100.5" width="4.04" height="1.5" rx=".8" fill="#4D8DFF" opacity="0.24"/><rect x="245.40" y="100.5" width="4.04" height="1.5" rx=".8" fill="#4D8DFF" opacity="0.24"/><rect x="252.60" y="100.5" width="4.04" height="1.5" rx=".8" fill="#4D8DFF" opacity="0.24"/><rect x="259.81" y="100.5" width="4.04" height="1.5" rx=".8" fill="#4D8DFF" opacity="0.24"/><rect x="267.02" y="100.5" width="4.04" height="1.5" rx=".8" fill="#4D8DFF" opacity="0.24"/><rect x="274.23" y="100.5" width="4.04" height="1.5" rx=".8" fill="#4D8DFF" opacity="0.24"/><rect x="281.43" y="100.5" width="4.04" height="1.5" rx=".8" fill="#4D8DFF" opacity="0.24"/><rect x="288.64" y="100.5" width="4.04" height="1.5" rx=".8" fill="#4D8DFF" opacity="0.24"/><rect x="295.85" y="100.5" width="4.04" height="1.5" rx=".8" fill="#4D8DFF" opacity="0.24"/><rect x="303.06" y="100.5" width="4.04" height="1.5" rx=".8" fill="#4D8DFF" opacity="0.24"/><rect x="310.26" y="100.5" width="4.04" height="1.5" rx=".8" fill="#4D8DFF" opacity="0.24"/><rect x="317.47" y="100.5" width="4.04" height="1.5" rx=".8" fill="#4D8DFF" opacity="0.24"/><rect x="324.68" y="100.5" width="4.04" height="1.5" rx=".8" fill="#4D8DFF" opacity="0.24"/><rect x="331.89" y="100.5" width="4.04" height="1.5" rx=".8" fill="#4D8DFF" opacity="0.24"/><rect x="339.09" y="100.5" width="4.04" height="1.5" rx=".8" fill="#4D8DFF" opacity="0.24"/><rect x="346.30" y="100.5" width="4.04" height="1.5" rx=".8" fill="#4D8DFF" opacity="0.24"/><rect x="353.51" y="100.5" width="4.04" height="1.5" rx=".8" fill="#4D8DFF" opacity="0.24"/><rect x="360.72" y="100.5" width="4.04" height="1.5" rx=".8" fill="#4D8DFF" opacity="0.24"/><rect x="367.92" y="100.5" width="4.04" height="1.5" rx=".8" fill="#4D8DFF" opacity="0.24"/><rect x="375.13" y="100.5" width="4.04" height="1.5" rx=".8" fill="#4D8DFF" opacity="0.24"/><rect x="382.34" y="100.5" width="4.04" height="1.5" rx=".8" fill="#4D8DFF" opacity="0.24"/><rect x="389.55" y="99.0" width="4.04" height="3.0" rx=".8" fill="#4D8DFF" opacity="0.28"/><rect x="396.75" y="96.7" width="4.04" height="5.3" rx=".8" fill="#4D8DFF" opacity="0.31"/><rect x="403.96" y="98.7" width="4.04" height="3.3" rx=".8" fill="#4D8DFF" opacity="0.28"/><rect x="411.17" y="100.5" width="4.04" height="1.5" rx=".8" fill="#4D8DFF" opacity="0.25"/><rect x="418.38" y="100.3" width="4.04" height="1.7" rx=".8" fill="#4D8DFF" opacity="0.26"/><rect x="425.58" y="87.4" width="4.04" height="14.6" rx=".8" fill="#4D8DFF" opacity="0.42"/><rect x="432.79" y="95.9" width="4.04" height="6.1" rx=".8" fill="#4D8DFF" opacity="0.31"/><rect x="440.00" y="90.4" width="4.04" height="11.6" rx=".8" fill="#4D8DFF" opacity="0.38"/><rect x="447.21" y="77.8" width="4.04" height="24.2" rx=".8" fill="#4D8DFF" opacity="0.54"/><rect x="454.42" y="86.6" width="4.04" height="15.4" rx=".8" fill="#4D8DFF" opacity="0.43"/><rect x="461.62" y="97.2" width="4.04" height="4.8" rx=".8" fill="#4D8DFF" opacity="0.30"/><rect x="468.83" y="99.7" width="4.04" height="2.3" rx=".8" fill="#4D8DFF" opacity="0.27"/><rect x="476.04" y="97.8" width="4.04" height="4.2" rx=".8" fill="#4D8DFF" opacity="0.29"/><rect x="483.25" y="95.0" width="4.04" height="7.0" rx=".8" fill="#4D8DFF" opacity="0.33"/><rect x="490.45" y="97.8" width="4.04" height="4.2" rx=".8" fill="#4D8DFF" opacity="0.29"/><rect x="497.66" y="100.5" width="4.04" height="1.5" rx=".8" fill="#4D8DFF" opacity="0.24"/><rect x="504.87" y="95.3" width="4.04" height="6.7" rx=".8" fill="#4D8DFF" opacity="0.32"/><rect x="512.08" y="94.4" width="4.04" height="7.6" rx=".8" fill="#4D8DFF" opacity="0.33"/><rect x="519.28" y="92.5" width="4.04" height="9.5" rx=".8" fill="#4D8DFF" opacity="0.36"/><rect x="526.49" y="99.5" width="4.04" height="2.5" rx=".8" fill="#4D8DFF" opacity="0.27"/><rect x="533.70" y="100.5" width="4.04" height="1.5" rx=".8" fill="#4D8DFF" opacity="0.24"/><rect x="540.91" y="96.4" width="4.04" height="5.6" rx=".8" fill="#4D8DFF" opacity="0.31"/><rect x="548.11" y="78.0" width="4.04" height="24.0" rx=".8" fill="#4D8DFF" opacity="0.53"/><rect x="555.32" y="46.5" width="4.04" height="55.5" rx=".8" fill="#4D8DFF" opacity="0.92"/><rect x="562.53" y="69.9" width="4.04" height="32.1" rx=".8" fill="#4D8DFF" opacity="0.63"/><rect x="569.74" y="69.0" width="4.04" height="33.0" rx=".8" fill="#4D8DFF" opacity="0.64"/><rect x="576.94" y="82.7" width="4.04" height="19.3" rx=".8" fill="#4D8DFF" opacity="0.48"/><rect x="584.15" y="98.3" width="4.04" height="3.7" rx=".8" fill="#4D8DFF" opacity="0.29"/><rect x="591.36" y="100.5" width="4.04" height="1.5" rx=".8" fill="#4D8DFF" opacity="0.24"/><rect x="598.57" y="92.4" width="4.04" height="9.6" rx=".8" fill="#4D8DFF" opacity="0.36"/><rect x="605.77" y="59.3" width="4.04" height="42.7" rx=".8" fill="#4D8DFF" opacity="0.76"/><rect x="612.98" y="66.1" width="4.04" height="35.9" rx=".8" fill="#4D8DFF" opacity="0.68"/><rect x="620.19" y="50.6" width="4.04" height="51.4" rx=".8" fill="#4D8DFF" opacity="0.87"/><rect x="627.40" y="47.9" width="4.04" height="54.1" rx=".8" fill="#4D8DFF" opacity="0.90"/><rect x="634.60" y="60.1" width="4.04" height="41.9" rx=".8" fill="#4D8DFF" opacity="0.75"/><rect x="641.81" y="40.0" width="4.04" height="62.0" rx=".8" fill="#4D8DFF" opacity="1.00"/><rect x="649.02" y="59.4" width="4.04" height="42.6" rx=".8" fill="#4D8DFF" opacity="0.76"/><rect x="656.23" y="62.8" width="4.04" height="39.2" rx=".8" fill="#4D8DFF" opacity="0.72"/><rect x="663.43" y="78.7" width="4.04" height="23.3" rx=".8" fill="#4D8DFF" opacity="0.53"/><rect x="670.64" y="82.0" width="4.04" height="20.0" rx=".8" fill="#4D8DFF" opacity="0.49"/><rect x="677.85" y="84.5" width="4.04" height="17.5" rx=".8" fill="#4D8DFF" opacity="0.45"/><rect x="685.06" y="94.8" width="4.04" height="7.2" rx=".8" fill="#4D8DFF" opacity="0.33"/><rect x="692.26" y="83.0" width="4.04" height="19.0" rx=".8" fill="#4D8DFF" opacity="0.47"/><rect x="699.47" y="92.3" width="4.04" height="9.7" rx=".8" fill="#4D8DFF" opacity="0.36"/><rect x="706.68" y="100.4" width="4.04" height="1.6" rx=".8" fill="#4D8DFF" opacity="0.26"/><rect x="713.89" y="100.2" width="4.04" height="1.8" rx=".8" fill="#4D8DFF" opacity="0.26"/><rect x="721.09" y="91.9" width="4.04" height="10.1" rx=".8" fill="#4D8DFF" opacity="0.36"/><rect x="728.30" y="68.3" width="4.04" height="33.7" rx=".8" fill="#4D8DFF" opacity="0.65"/><rect x="735.51" y="77.9" width="4.04" height="24.1" rx=".8" fill="#4D8DFF" opacity="0.54"/><rect x="742.72" y="81.3" width="4.04" height="20.7" rx=".8" fill="#4D8DFF" opacity="0.49"/><rect x="749.92" y="88.4" width="4.04" height="13.6" rx=".8" fill="#4D8DFF" opacity="0.41"/><rect x="757.13" y="83.1" width="4.04" height="18.9" rx=".8" fill="#4D8DFF" opacity="0.47"/><rect x="764.34" y="89.7" width="4.04" height="12.3" rx=".8" fill="#4D8DFF" opacity="0.39"/><rect x="771.55" y="94.0" width="4.04" height="8.0" rx=".8" fill="#4D8DFF" opacity="0.34"/><rect x="778.75" y="99.4" width="4.04" height="2.6" rx=".8" fill="#4D8DFF" opacity="0.27"/><rect x="785.96" y="92.4" width="4.04" height="9.6" rx=".8" fill="#4D8DFF" opacity="0.36"/><rect x="793.17" y="92.2" width="4.04" height="9.8" rx=".8" fill="#4D8DFF" opacity="0.36"/><rect x="800.38" y="93.0" width="4.04" height="9.0" rx=".8" fill="#4D8DFF" opacity="0.35"/><rect x="807.58" y="98.5" width="4.04" height="3.5" rx=".8" fill="#4D8DFF" opacity="0.28"/><rect x="814.79" y="90.3" width="4.04" height="11.7" rx=".8" fill="#4D8DFF" opacity="0.38"/>
<path d="M58 109h764" stroke="#1C2230" stroke-width="1"/>
<text x="58" y="128" font-family="ui-monospace,SFMono-Regular,Menlo,Consolas,monospace" font-size="10" fill="#5B6474">OCT 2025</text>
<text x="822" y="128" text-anchor="end" font-family="ui-monospace,SFMono-Regular,Menlo,Consolas,monospace" font-size="10" fill="#5B6474">AUG 2026</text>
</svg>